<mxfile host="app.diagrams.net" modified="2021-11-25T06:28:12.659Z" agent="5.0 (Windows NT 10.0; Win64; x64) AppleWebKit/537.36 (KHTML, like Gecko) Chrome/95.0.4638.69 Safari/537.36" etag="6wgFe_2JK7_IRWsKzJ0v" version="15.7.4" type="github">
  <diagram id="daVGxo76Hsn-MBISbNkk" name="Page-1">
    <mxGraphModel dx="652" dy="363" grid="0" gridSize="10" guides="1" tooltips="1" connect="1" arrows="1" fold="1" page="1" pageScale="1" pageWidth="827" pageHeight="1169" math="0" shadow="0">
      <root>
        <mxCell id="0" />
        <mxCell id="1" parent="0" />
        <mxCell id="_1VaRpxyojYZcZE-MWa5-7" value="" style="swimlane;startSize=0;" vertex="1" parent="1">
          <mxGeometry x="288" y="208" width="201" height="329" as="geometry" />
        </mxCell>
        <mxCell id="_1VaRpxyojYZcZE-MWa5-8" value="应用层" style="whiteSpace=wrap;html=1;" vertex="1" parent="_1VaRpxyojYZcZE-MWa5-7">
          <mxGeometry width="201" height="47" as="geometry" />
        </mxCell>
        <mxCell id="_1VaRpxyojYZcZE-MWa5-9" value="表示层" style="whiteSpace=wrap;html=1;" vertex="1" parent="_1VaRpxyojYZcZE-MWa5-7">
          <mxGeometry y="47" width="201" height="47" as="geometry" />
        </mxCell>
        <mxCell id="_1VaRpxyojYZcZE-MWa5-10" value="会话层" style="whiteSpace=wrap;html=1;" vertex="1" parent="_1VaRpxyojYZcZE-MWa5-7">
          <mxGeometry y="94" width="201" height="47" as="geometry" />
        </mxCell>
        <mxCell id="_1VaRpxyojYZcZE-MWa5-11" value="传输层" style="whiteSpace=wrap;html=1;" vertex="1" parent="_1VaRpxyojYZcZE-MWa5-7">
          <mxGeometry y="141" width="201" height="47" as="geometry" />
        </mxCell>
        <mxCell id="_1VaRpxyojYZcZE-MWa5-12" value="网络层" style="whiteSpace=wrap;html=1;" vertex="1" parent="_1VaRpxyojYZcZE-MWa5-7">
          <mxGeometry y="188" width="201" height="47" as="geometry" />
        </mxCell>
        <mxCell id="_1VaRpxyojYZcZE-MWa5-13" value="数据链路层" style="whiteSpace=wrap;html=1;" vertex="1" parent="_1VaRpxyojYZcZE-MWa5-7">
          <mxGeometry y="235" width="201" height="47" as="geometry" />
        </mxCell>
        <mxCell id="_1VaRpxyojYZcZE-MWa5-14" value="物理层" style="whiteSpace=wrap;html=1;" vertex="1" parent="_1VaRpxyojYZcZE-MWa5-7">
          <mxGeometry y="282" width="201" height="47" as="geometry" />
        </mxCell>
        <mxCell id="_1VaRpxyojYZcZE-MWa5-15" value="七层OSI模型" style="text;html=1;strokeColor=none;fillColor=none;align=center;verticalAlign=middle;whiteSpace=wrap;rounded=0;" vertex="1" parent="1">
          <mxGeometry x="327" y="178" width="129" height="30" as="geometry" />
        </mxCell>
      </root>
    </mxGraphModel>
  </diagram>
</mxfile>
